<svg width="90" height="16" viewBox="0 0 90 16" fill="none" xmlns="http://www.w3.org/2000/svg">
<path d="M90 0H70V16H90V0Z" fill="#FF4F00"/>
<path d="M4.35042 8.73801V15.5198H1.27519V8.73801H0.164673V6.35414H1.27519V4.54571C1.27519 3.51831 1.38203 2.34695 2.34298 1.36062C2.96227 0.723292 3.83788 0.3125 5.01251 0.3125C5.69584 0.3125 6.25101 0.435739 6.76372 0.620594V3.21004C6.42206 3.00447 5.97347 2.8607 5.589 2.8607C5.11927 2.8607 4.82024 3.06626 4.69208 3.23058C4.35042 3.66225 4.35042 4.38148 4.35042 4.8129V6.35422H6.78504V8.7381H4.35042V8.73801Z" fill="#FF4F00"/>
<path d="M15.5961 14.3476C14.8783 15.1696 13.6581 15.8275 12.0967 15.8275C10.5356 15.8275 9.31519 15.1697 8.59734 14.3476C7.78991 13.4227 7.395 12.1075 7.395 10.9364C7.395 9.76498 7.78991 8.44977 8.59734 7.52489C9.31519 6.70288 10.5356 6.04535 12.0967 6.04535C13.6581 6.04535 14.8783 6.70279 15.5961 7.52489C16.4037 8.44977 16.7985 9.76507 16.7985 10.9364C16.7985 12.1076 16.4037 13.4228 15.5961 14.3476ZM10.6433 9.20999C10.2664 9.64158 10.0511 10.1963 10.0511 10.9363C10.0511 11.7789 10.3381 12.3131 10.6433 12.6624C10.9662 13.0323 11.4328 13.3201 12.1147 13.3201C12.689 13.3201 13.1736 13.094 13.5505 12.6624C13.9272 12.2308 14.1426 11.6761 14.1426 10.9363C14.1426 10.1963 13.9272 9.64158 13.5505 9.20999C13.1736 8.77857 12.689 8.55255 12.0968 8.55255C11.5046 8.55255 11.0201 8.77857 10.6433 9.20999H10.6433Z" fill="#FF4F00"/>
<path d="M21.1775 10.5258L18.0011 6.35391H21.3031L22.7926 8.47069L24.2821 6.35391H27.584L24.4077 10.5258L28.3197 15.5195H24.9818L22.7926 12.5602L20.6033 15.5195H17.2654L21.1775 10.5258Z" fill="#FF4F00"/>
<path d="M29.3605 6.35416H31.9445V7.42282C32.6085 6.27218 33.5776 6.12805 34.1877 6.12805C34.5288 6.12805 35.1569 6.16931 35.6952 6.53928C36.1079 6.80638 36.449 7.25859 36.6642 7.8135C36.8617 7.44336 37.1667 7.01194 37.6872 6.64197C38.2435 6.25137 38.7639 6.12805 39.392 6.12805C40.3612 6.12805 41.1506 6.45694 41.6352 6.99149C42.4068 7.83404 42.4608 9.06692 42.4608 9.72471V15.5198H39.8766V10.8754C39.8766 10.4027 39.8766 9.58059 39.5355 9.08738C39.3202 8.77929 38.9794 8.59417 38.6024 8.59417C38.1717 8.59417 37.8127 8.82028 37.5975 9.14917C37.2564 9.64238 37.2026 10.3616 37.2026 10.9576V15.5197H34.6186V10.7519C34.6186 10.1354 34.6007 9.4161 34.2059 8.96397C33.9367 8.65588 33.6137 8.59409 33.3445 8.59409C33.0034 8.59409 32.6985 8.69696 32.4472 8.96397C31.9627 9.49843 31.9447 10.5258 31.9447 10.8342V15.5197H29.3607V6.35408L29.3605 6.35416Z" fill="#FF4F00"/>
<path d="M45.9604 0.72348C46.8039 0.72348 47.4679 1.48404 47.4679 2.44992C47.4679 3.41571 46.8039 4.17601 45.9604 4.17601C45.117 4.17601 44.4531 3.41571 44.4531 2.44992C44.4531 1.48404 45.117 0.72348 45.9604 0.72348ZM47.4679 6.53046V15.6961L44.6685 15.5199V6.35432L47.4679 6.53046Z" fill="#FF4F00"/>
<path d="M49.4414 6.3537H52.0254V7.4429C52.8152 6.29217 53.7483 6.10706 54.5019 6.10706C55.2018 6.10706 56.1171 6.25092 56.7989 7.03194C57.5527 7.89503 57.6064 8.98414 57.6064 9.72425V15.5193H55.0224V10.8134C55.0224 10.2175 55.0046 9.45689 54.5917 8.98422C54.3943 8.75812 54.0713 8.57326 53.6048 8.57326C53.0663 8.57326 52.7252 8.81991 52.5279 9.06647C52.0971 9.55976 52.0254 10.2175 52.0254 10.8134V15.5193H49.4414V6.3537Z" fill="#FF4F00"/>
<path d="M68.3381 15.5198H65.754V14.4101C65.3593 15.0676 64.6414 15.8281 63.224 15.8281C62.0393 15.8281 61.1781 15.3964 60.4782 14.5744C59.6528 13.6289 59.2221 12.3138 59.2221 10.8957C59.2221 9.37518 59.7065 8.12141 60.4782 7.27885C61.1781 6.51855 62.1651 6.04589 63.2599 6.04589C64.1391 6.04589 65.1082 6.37477 65.7541 7.38164V0.538361H68.3381V15.5196L68.3381 15.5198ZM62.506 9.21078C62.1291 9.62191 61.8779 10.2179 61.8779 10.9577C61.8779 11.6359 62.1291 12.2316 62.506 12.6428C62.9007 13.0744 63.4033 13.2798 63.852 13.2798C64.3362 13.2798 64.9106 13.0536 65.3234 12.6018C65.6286 12.2729 65.9156 11.718 65.9156 10.9578C65.9156 10.1767 65.6463 9.64246 65.3412 9.27257C64.9287 8.77936 64.4441 8.59434 63.8879 8.59434C63.3674 8.59434 62.9187 8.75865 62.506 9.21086V9.21078Z" fill="#FF4F00"/>
<path d="M78.6937 11.4503H72.7177C72.7177 11.9435 72.8791 12.6012 73.2023 13.0121C73.5971 13.5053 74.1356 13.5876 74.5303 13.5876C74.9072 13.5876 75.3019 13.5052 75.5712 13.3204C75.6071 13.2996 75.9122 13.0738 76.1274 12.5598L78.568 12.8477C78.2091 14.1421 77.4912 14.8204 77.0247 15.1494C76.2529 15.6835 75.3918 15.8276 74.4944 15.8276C73.2919 15.8276 72.2332 15.5809 71.3001 14.5123C70.6002 13.7107 70.0978 12.4983 70.0978 10.9774C70.0978 9.6622 70.5103 8.30598 71.3181 7.36056C72.2869 6.25074 73.4894 6.04535 74.3867 6.04535C75.2841 6.04535 76.5761 6.2302 77.563 7.42209C78.514 8.573 78.6937 10.0115 78.6937 11.1416V11.4501V11.4503ZM76.3068 9.68282C76.2888 9.60049 76.1633 9.02538 75.7863 8.61416C75.4994 8.30607 75.0865 8.1005 74.5661 8.1005C73.9021 8.1005 73.5071 8.40885 73.256 8.69649C73.0588 8.94305 72.8791 9.27186 72.8073 9.68282H76.3068Z" fill="white"/>
<path d="M89.0297 15.5198H86.4457V14.4101C86.051 15.0676 85.333 15.8281 83.9156 15.8281C82.731 15.8281 81.8698 15.3964 81.1699 14.5744C80.3444 13.6289 79.9138 12.3138 79.9138 10.8957C79.9138 9.37518 80.398 8.12141 81.1699 7.27885C81.8698 6.51855 82.8567 6.04589 83.9516 6.04589C84.8308 6.04589 85.7998 6.37477 86.4458 7.38164V0.538361H89.0298V15.5196L89.0297 15.5198ZM83.1976 9.21078C82.8208 9.62191 82.5695 10.2179 82.5695 10.9577C82.5695 11.6359 82.8208 12.2316 83.1976 12.6428C83.5924 13.0744 84.0949 13.2798 84.5436 13.2798C85.0279 13.2798 85.6023 13.0536 86.0151 12.6018C86.3202 12.2729 86.6073 11.718 86.6073 10.9578C86.6073 10.1767 86.338 9.64246 86.0329 9.27257C85.6203 8.77936 85.1358 8.59434 84.5795 8.59434C84.059 8.59434 83.6104 8.75865 83.1976 9.21086V9.21078Z" fill="white"/>
</svg>
